<?xml version="1.0" standalone="no"?>
<svg version="1.0" xmlns="http://www.w3.org/2000/svg"
 width="560.000000pt" height="560.000000pt" viewBox="0 0 560.000000 560.000000"
 preserveAspectRatio="xMidYMid meet">

<g transform="translate(0.000000,560.000000) scale(0.100000,-0.100000)"
fill="#fff" stroke="none">
<path d="M2615 5594 c-459 -46 -809 -148 -1156 -340 -472 -260 -853 -641
-1113 -1112 -163 -296 -268 -618 -322 -987 -25 -167 -25 -543 0 -710 54 -369
154 -677 319 -980 130 -239 281 -439 482 -641 432 -434 963 -700 1585 -795
209 -32 571 -32 780 0 622 95 1150 360 1586 795 444 444 705 974 800 1621 27
183 25 552 -5 745 -95 621 -361 1153 -795 1585 -437 436 -971 704 -1581 795
-134 20 -479 34 -580 24z m525 -330 c954 -140 1731 -793 2025 -1704 131 -408
153 -867 60 -1295 -169 -780 -738 -1456 -1483 -1760 -609 -248 -1275 -248
-1884 0 -537 220 -993 637 -1262 1155 -144 277 -233 569 -265 872 -14 125 -14
421 0 546 70 648 419 1275 933 1676 384 299 855 486 1328 526 137 11 417 3
548 -16z"/>
<path d="M2655 2859 c-357 -1013 -650 -1846 -650 -1852 0 -14 275 -111 285
-100 5 4 180 494 390 1088 415 1175 896 2533 912 2578 6 15 9 29 7 31 -9 7
-272 96 -282 96 -7 0 -304 -829 -662 -1841z"/>
<path d="M1476 4265 c-151 -29 -312 -111 -405 -208 l-44 -46 88 -116 c48 -63
90 -115 92 -115 3 0 29 22 59 49 72 64 135 97 230 121 84 22 225 27 284 10 62
-17 126 -65 156 -116 25 -42 29 -61 32 -145 l4 -96 -183 -6 c-286 -10 -422
-36 -575 -112 -198 -97 -313 -266 -314 -461 -1 -307 259 -522 606 -501 123 7
236 39 361 103 l103 52 0 -59 0 -59 185 0 185 0 0 593 c0 653 -2 672 -62 795
-47 96 -159 207 -258 254 -41 20 -102 44 -135 53 -86 23 -309 29 -409 10z
m473 -962 c23 -6 23 -8 19 -92 -6 -116 -40 -192 -119 -265 -231 -214 -608
-154 -609 97 0 100 114 209 250 238 104 22 404 37 459 22z"/>
<path d="M3727 3593 c-6 -9 -727 -2059 -735 -2085 -4 -17 8 -18 160 -18 l164
0 23 73 c12 39 56 177 97 305 l75 232 279 0 278 0 16 -42 c9 -24 58 -160 110
-303 l93 -260 173 -3 c162 -2 172 -1 165 15 -27 72 -644 1685 -713 1865 l-87
228 -47 0 c-26 0 -49 -3 -51 -7z m151 -953 c49 -135 93 -253 97 -262 7 -17 -6
-18 -189 -18 -108 0 -196 1 -196 3 0 2 41 122 90 266 50 145 90 266 90 269 0
24 29 -46 108 -258z"/>
</g>
</svg>
