<?xml version="1.0" encoding="UTF-8"?>
<!DOCTYPE svg PUBLIC "-//W3C//DTD SVG 1.1//EN" "http://www.w3.org/Graphics/SVG/1.1/DTD/svg11.dtd">
<svg xmlns="http://www.w3.org/2000/svg" version="1.1" width="171px" height="170px" style="shape-rendering:geometricPrecision; text-rendering:geometricPrecision; image-rendering:optimizeQuality; fill-rule:evenodd; clip-rule:evenodd" xmlns:xlink="http://www.w3.org/1999/xlink">
<g><path style="opacity:0.99" fill="#fbfbfc" d="M 110.5,26.5 C 111.028,27.8474 111.195,29.1807 111,30.5C 105.985,35.6818 100.819,40.6818 95.5,45.5C 92.0154,42.516 88.682,39.3493 85.5,36C 84.8333,35.3333 84.1667,35.3333 83.5,36C 67.6667,51.8333 51.8333,67.6667 36,83.5C 35.3083,84.4368 35.475,85.1034 36.5,85.5C 42.8129,91.4784 49.1462,97.4784 55.5,103.5C 60.1869,99.1449 64.8536,94.8115 69.5,90.5C 71.0847,89.9976 71.5847,88.9976 71,87.5C 67.6667,84.1667 64.3333,80.8333 61,77.5C 60.5172,76.552 60.3505,75.552 60.5,74.5C 62.7851,71.5482 65.4517,68.8815 68.5,66.5C 71.1303,64.3719 73.6303,62.0386 76,59.5C 87.1667,70.6667 98.3333,81.8333 109.5,93C 104,98.5 98.5,104 93,109.5C 88.985,105.318 84.8183,101.318 80.5,97.5C 75.1814,102.318 70.0147,107.318 65,112.5C 64.3083,113.437 64.475,114.103 65.5,114.5C 69.8333,118.167 73.8333,122.167 77.5,126.5C 78.5434,129.056 80.2101,131.223 82.5,133C 83.7494,133.74 84.7494,133.573 85.5,132.5C 100.86,116.473 116.527,100.806 132.5,85.5C 133.525,85.1034 133.692,84.4368 133,83.5C 129.296,79.9643 125.796,76.2976 122.5,72.5C 127.297,67.202 132.297,62.0354 137.5,57C 138.577,56.5304 139.577,56.6971 140.5,57.5C 148.798,66.2983 157.298,74.965 166,83.5C 166.667,84.1667 166.667,84.8333 166,85.5C 139.031,112.469 112.198,139.302 85.5,166C 84.8333,166.667 84.1667,166.667 83.5,166C 81.5588,163.546 79.2254,161.713 76.5,160.5C 73.1667,155.167 68.8333,150.833 63.5,147.5C 63.631,146.761 63.4643,146.094 63,145.5C 42.6527,125.32 22.4861,104.986 2.5,84.5C 28.2071,58.2932 54.0404,32.2932 80,6.5C 80.5133,5.47344 81.0133,4.47344 81.5,3.5C 82.7382,2.58761 84.0715,2.42094 85.5,3C 93.4214,11.4261 101.755,19.2594 110.5,26.5 Z"/></g>
<g><path style="opacity:0.09" fill="#5063b4" d="M 111.5,26.5 C 111.167,26.5 110.833,26.5 110.5,26.5C 101.755,19.2594 93.4214,11.4261 85.5,3C 84.0715,2.42094 82.7382,2.58761 81.5,3.5C 82.7662,0.376406 84.7662,-0.123594 87.5,2C 95.0871,10.7519 103.087,18.9185 111.5,26.5 Z"/></g>
<g><path style="opacity:0.114" fill="#2848ac" d="M 120.5,37.5 C 119.162,35.8872 117.495,35.3872 115.5,36C 111.631,40.037 107.631,43.8704 103.5,47.5C 107.124,41.8758 111.791,37.2091 117.5,33.5C 119.288,34.2826 120.288,35.6159 120.5,37.5 Z"/></g>
<g><path style="opacity:0.998" fill="#27b433" d="M 120.5,37.5 C 120.369,38.2389 120.536,38.9056 121,39.5C 124.333,42.0017 127.499,44.6684 130.5,47.5C 130.833,47.5 131.167,47.5 131.5,47.5C 132.028,48.8474 132.195,50.1807 132,51.5C 127,56.5 122,61.5 117,66.5C 112,61.5 107,56.5 102,51.5C 101.7,49.9343 102.2,48.601 103.5,47.5C 107.631,43.8704 111.631,40.037 115.5,36C 117.495,35.3872 119.162,35.8872 120.5,37.5 Z"/></g>
<g><path style="opacity:0.133" fill="#255e8c" d="M 120.5,37.5 C 124.855,39.8548 128.188,43.1881 130.5,47.5C 127.499,44.6684 124.333,42.0017 121,39.5C 120.536,38.9056 120.369,38.2389 120.5,37.5 Z"/></g>
<g><path style="opacity:0.231" fill="#5b7fa9" d="M 140.5,55.5 C 140.5,56.1667 140.5,56.8333 140.5,57.5C 139.577,56.6971 138.577,56.5304 137.5,57C 132.297,62.0354 127.297,67.202 122.5,72.5C 121.833,72.5 121.5,72.1667 121.5,71.5C 126.63,65.8686 131.964,60.3686 137.5,55C 138.577,54.5304 139.577,54.6971 140.5,55.5 Z"/></g>
<g><path style="opacity:0.098" fill="#23558e" d="M 103.5,47.5 C 102.2,48.601 101.7,49.9343 102,51.5C 107,56.5 112,61.5 117,66.5C 122,61.5 127,56.5 132,51.5C 132.195,50.1807 132.028,48.8474 131.5,47.5C 133.377,48.6591 133.877,50.3258 133,52.5C 127.667,57.8333 122.333,63.1667 117,68.5C 111.194,62.6937 105.36,56.8604 99.5,51C 100.103,48.9286 101.436,47.7619 103.5,47.5 Z"/></g>
<g><path style="opacity:0.035" fill="#245592" d="M 110.5,26.5 C 110.833,26.5 111.167,26.5 111.5,26.5C 113.377,27.6591 113.877,29.3258 113,31.5C 107.833,36.6667 102.667,41.8333 97.5,47C 96.5,47.6667 95.5,47.6667 94.5,47C 91.5,44 88.5,41 85.5,38C 84.8333,37.3333 84.1667,37.3333 83.5,38C 67.6315,53.7014 51.9649,69.5348 36.5,85.5C 35.475,85.1034 35.3083,84.4368 36,83.5C 51.8333,67.6667 67.6667,51.8333 83.5,36C 84.1667,35.3333 84.8333,35.3333 85.5,36C 88.682,39.3493 92.0154,42.516 95.5,45.5C 100.819,40.6818 105.985,35.6818 111,30.5C 111.195,29.1807 111.028,27.8474 110.5,26.5 Z"/></g>
<g><path style="opacity:0.051" fill="#4066a0" d="M 60.5,74.5 C 60.3505,75.552 60.5172,76.552 61,77.5C 64.3333,80.8333 67.6667,84.1667 71,87.5C 71.5847,88.9976 71.0847,89.9976 69.5,90.5C 69.6495,89.448 69.4828,88.448 69,87.5C 65.6667,84.1667 62.3333,80.8333 59,77.5C 58.4153,76.0024 58.9153,75.0024 60.5,74.5 Z"/></g>
<g><path style="opacity:0.278" fill="#2e5b97" d="M 65.5,114.5 C 64.475,114.103 64.3083,113.437 65,112.5C 70.0147,107.318 75.1814,102.318 80.5,97.5C 84.8183,101.318 88.985,105.318 93,109.5C 98.5,104 104,98.5 109.5,93C 98.3333,81.8333 87.1667,70.6667 76,59.5C 73.6303,62.0386 71.1303,64.3719 68.5,66.5C 70.2301,62.2533 73.2301,59.7533 77.5,59C 88.8757,70.0413 99.8757,81.3746 110.5,93C 105.545,98.9566 100.212,104.623 94.5,110C 93.5,110.667 92.5,110.667 91.5,110C 87.9848,106.318 84.3181,102.818 80.5,99.5C 75.1456,104.188 70.1456,109.188 65.5,114.5 Z"/></g>
<g><path style="opacity:0.012" fill="#2957a0" d="M 121.5,71.5 C 121.5,72.1667 121.833,72.5 122.5,72.5C 125.796,76.2976 129.296,79.9643 133,83.5C 133.692,84.4368 133.525,85.1034 132.5,85.5C 128.87,81.369 125.037,77.369 121,73.5C 120.308,72.5632 120.475,71.8966 121.5,71.5 Z"/></g>
<g><path style="opacity:0.231" fill="#6c86b4" d="M 81.5,3.5 C 81.0133,4.47344 80.5133,5.47344 80,6.5C 54.0404,32.2932 28.2071,58.2932 2.5,84.5C 22.4861,104.986 42.6527,125.32 63,145.5C 63.4643,146.094 63.631,146.761 63.5,147.5C 42.1877,126.854 21.1877,105.854 0.5,84.5C 27.2898,57.0435 54.2898,30.0435 81.5,3.5 Z"/></g>
<g><path style="opacity:0.482" fill="#6b85b1" d="M 77.5,126.5 C 79.9024,128.909 82.5691,130.909 85.5,132.5C 84.7494,133.573 83.7494,133.74 82.5,133C 80.2101,131.223 78.5434,129.056 77.5,126.5 Z"/></g>
<g><path style="opacity:0.537" fill="#6c84b3" d="M 63.5,147.5 C 68.8333,150.833 73.1667,155.167 76.5,160.5C 71.8814,156.548 67.5481,152.215 63.5,147.5 Z"/></g>
<g><path style="opacity:0.173" fill="#3f69a0" d="M 140.5,55.5 C 149.452,64.452 158.452,73.452 167.5,82.5C 168.428,83.7678 168.595,85.1011 168,86.5C 140.833,113.667 113.667,140.833 86.5,168C 85.1011,168.595 83.7678,168.428 82.5,167.5C 80.4773,165.147 78.4773,162.814 76.5,160.5C 79.2254,161.713 81.5588,163.546 83.5,166C 84.1667,166.667 84.8333,166.667 85.5,166C 112.198,139.302 139.031,112.469 166,85.5C 166.667,84.8333 166.667,84.1667 166,83.5C 157.298,74.965 148.798,66.2983 140.5,57.5C 140.5,56.8333 140.5,56.1667 140.5,55.5 Z"/></g>
</svg>
